<svg width="42" height="43" viewBox="0 0 42 43" fill="none" xmlns="http://www.w3.org/2000/svg">
<g clip-path="url(#clip0_144_52)">
<path d="M15.2424 8.46289C12.9466 9.09378 8.0912 11.6813 7.03528 16.9836C5.71539 23.6115 11.1354 32.0159 9.98591 36.3291L23.7374 31.1888" stroke="#E8E5DF" stroke-width="2.90479" stroke-linejoin="round"/>
<path d="M13.4644 9.12757C15.6111 8.09794 20.9732 6.86607 25.2483 10.1757C30.5921 14.3126 32.0139 24.2116 35.7107 26.7133L21.9593 31.8535" stroke="#E8E5DF" stroke-width="2.90479" stroke-linejoin="round"/>
<path d="M24.8439 36.4838C23.6954 36.9131 22.4654 36.7739 21.4595 36.1984L27.2113 34.0483C26.8295 35.1425 25.9924 36.0545 24.8439 36.4838Z" fill="#E8E5DF" stroke="#E8E5DF" stroke-width="1.45239"/>
<mask id="mask0_144_52" style="mask-type:luminance" maskUnits="userSpaceOnUse" x="9" y="3" width="9" height="8">
<path d="M15.8306 3.69719L9.89404 5.91626L11.7433 10.8634L17.6798 8.64429L15.8306 3.69719Z" fill="white"/>
</mask>
<g mask="url(#mask0_144_52)">
<path d="M15.0814 10.7433C16.7207 10.1305 17.5529 8.30478 16.9401 6.66545C16.3273 5.02613 14.5016 4.19395 12.8623 4.80673C11.223 5.4195 10.3908 7.2452 11.0036 8.88452C11.6164 10.5238 13.442 11.356 15.0814 10.7433Z" fill="#E8E5DF"/>
</g>
<path d="M32.4718 20.3424C37.4414 20.3424 41.47 16.3137 41.47 11.3442C41.47 6.37458 37.4414 2.34595 32.4718 2.34595C27.5023 2.34595 23.4736 6.37458 23.4736 11.3442C23.4736 16.3137 27.5023 20.3424 32.4718 20.3424Z" fill="#EFC956"/>
<path d="M29.465 14.8652H34.8405V13.7737H31.0612L33.3851 11.4146C34.0541 10.7221 34.7466 9.86535 34.7466 8.85599C34.7466 7.58845 33.7372 6.59082 32.1058 6.59082C30.404 6.59082 29.3594 7.56497 29.3477 9.26678H30.5918C30.5918 8.16352 31.2138 7.60018 32.1058 7.60018C32.9274 7.60018 33.5025 8.10483 33.5025 8.85599C33.5025 9.57193 33.08 10.1353 32.5518 10.6517L29.465 13.7854V14.8652Z" fill="white"/>
</g>
<defs>
<clipPath id="clip0_144_52">
<rect width="41.47" height="42.2525" fill="white" transform="translate(0 -0.0012207)"/>
</clipPath>
</defs>
</svg>
